<svg height="464pt" viewBox="-31 0 463 464" width="464pt" xmlns="http://www.w3.org/2000/svg"><path d="m320.5 0h-304l-16 16v432l16 16h368l16-16v-352zm0 0" fill="#acabb1"/><path d="m400.5 152v296l-16 16h-304s272-88 320-312zm0 0" fill="#acabb1"/><path d="m272.5 144v-144h-224v144zm-64-112h32v80h-32zm0 0" fill="#787680"/><g fill="#ffb655"><path d="m208.5 32h32v80h-32zm0 0"/><path d="m24.5 424h16v16h-16zm0 0"/><path d="m360.5 424h16v16h-16zm0 0"/></g><path d="m400.5 152v296l-16 16h-304s272-88 320-312zm0 0" fill="#939598"/><path d="m56.5 240h288c4.417969 0 8 3.582031 8 8v160c0 4.417969-3.582031 8-8 8h-288c-4.417969 0-8-3.582031-8-8v-160c0-4.417969 3.582031-8 8-8zm0 0" fill="#ff9478"/></svg>