<svg width="59" height="59" viewBox="0 0 59 59" fill="none" xmlns="http://www.w3.org/2000/svg">
<circle cx="29.5" cy="29.5" r="28.5" fill="black" stroke="#F7E018" stroke-width="2"/>
<path d="M14.0028 40.072C13.4988 40.072 13.1508 39.496 12.9588 38.344C12.7908 37.168 12.6468 35.104 12.5268 32.152L12.4188 29.524C12.3708 28.612 12.2028 27.208 11.9148 25.312C11.8908 25.072 11.7948 24.34 11.6268 23.116C11.4588 21.892 11.3748 20.812 11.3748 19.876C11.3748 19.732 11.4468 19.552 11.5908 19.336C11.7348 19.096 11.9148 18.976 12.1308 18.976C12.4428 18.976 12.6468 19.12 12.7428 19.408C12.8628 19.696 12.9348 19.984 12.9588 20.272C13.0068 20.536 13.0308 20.704 13.0308 20.776C13.1748 21.184 13.2828 21.748 13.3548 22.468C13.4268 23.164 13.4868 23.908 13.5348 24.7C13.6308 26.26 13.7268 27.376 13.8228 28.048L14.9388 26.464C16.4988 24.16 17.9028 22.312 19.1508 20.92C20.4228 19.528 21.6588 18.856 22.8588 18.904C22.9548 19 23.0028 19.12 23.0028 19.264C23.0028 19.504 22.8828 19.78 22.6428 20.092C22.4028 20.404 22.0428 20.812 21.5628 21.316L20.8068 22.108C20.5428 22.42 19.7388 23.308 18.3948 24.772C17.4588 25.756 16.6908 26.596 16.0908 27.292C15.4908 27.988 15.0348 28.624 14.7228 29.2C15.7788 30.664 17.0268 31.96 18.4668 33.088C19.9308 34.216 21.8388 35.548 24.1908 37.084L25.2708 37.768C25.7028 37.936 26.0388 38.164 26.2788 38.452C26.5428 38.716 26.6748 38.992 26.6748 39.28C26.6748 39.424 26.6388 39.568 26.5668 39.712C26.3988 40 26.1948 40.144 25.9548 40.144C25.6908 40.144 25.2228 39.976 24.5508 39.64L22.6068 38.272C20.4948 36.88 18.6948 35.584 17.2068 34.384C15.7188 33.184 14.6868 32.044 14.1108 30.964L14.3268 33.664C14.5428 36.136 14.6508 37.792 14.6508 38.632C14.6508 39.232 14.6028 39.628 14.5068 39.82C14.4108 39.988 14.2428 40.072 14.0028 40.072ZM39.8635 38.632C41.8315 38.632 43.3555 38.356 44.4355 37.804C45.5155 37.252 46.0555 36.448 46.0555 35.392C46.0555 34.456 45.7315 33.652 45.0835 32.98C44.4355 32.284 43.6315 31.696 42.6715 31.216C41.7115 30.736 40.4035 30.172 38.7475 29.524C38.6035 29.476 38.2555 29.344 37.7035 29.128C35.4475 28.216 33.7075 27.304 32.4835 26.392C31.2835 25.48 30.6835 24.304 30.6835 22.864C30.6835 21.256 31.3195 20.044 32.5915 19.228C33.8635 18.412 35.4955 18.004 37.4875 18.004C38.9515 18.004 40.2955 18.196 41.5195 18.58C42.7675 18.94 43.7515 19.444 44.4715 20.092C45.2155 20.74 45.5875 21.472 45.5875 22.288C45.2995 22.432 45.0235 22.504 44.7595 22.504C44.4715 22.504 44.1715 22.444 43.8595 22.324C43.5715 22.18 43.1395 21.952 42.5635 21.64C41.6275 21.136 40.7515 20.74 39.9355 20.452C39.1195 20.14 38.1595 19.984 37.0555 19.984C35.6635 19.984 34.5355 20.224 33.6715 20.704C32.8075 21.184 32.3755 21.856 32.3755 22.72C32.3755 23.392 32.6635 24.004 33.2395 24.556C33.8395 25.108 34.5835 25.6 35.4715 26.032C36.3835 26.44 37.5955 26.932 39.1075 27.508C41.0275 28.252 42.6115 28.948 43.8595 29.596C45.1075 30.244 46.1635 31.072 47.0275 32.08C47.9155 33.064 48.3595 34.24 48.3595 35.608C48.3595 37.216 47.5915 38.464 46.0555 39.352C44.5195 40.216 42.6115 40.648 40.3315 40.648C38.5315 40.648 36.7555 40.384 35.0035 39.856C33.2515 39.328 31.7515 38.548 30.5035 37.516C29.2555 36.46 28.4635 35.2 28.1275 33.736C28.1275 33.088 28.3075 32.536 28.6675 32.08C29.0275 31.6 29.4715 31.36 29.9995 31.36C29.9995 32.92 30.4315 34.252 31.2955 35.356C32.1835 36.436 33.3715 37.252 34.8595 37.804C36.3715 38.356 38.0395 38.632 39.8635 38.632ZM36.4795 16.42C36.1195 16.42 35.8795 16.372 35.7595 16.276C35.6635 16.18 35.6155 15.952 35.6155 15.592C35.6155 15.112 35.9995 14.524 36.7675 13.828C37.5355 13.132 38.5195 12.34 39.7195 11.452L40.5115 10.84C40.9435 11.056 41.1595 11.308 41.1595 11.596C41.1595 11.884 40.9795 12.22 40.6195 12.604C40.2835 12.988 39.7075 13.528 38.8915 14.224C37.9315 15.04 37.1275 15.772 36.4795 16.42Z" fill="#F7E018"/>
<path d="M12.9588 38.344L11.9689 38.4854L11.9705 38.4969L11.9724 38.5084L12.9588 38.344ZM12.5268 32.152L13.526 32.1114L13.526 32.1109L12.5268 32.152ZM12.4188 29.524L13.4181 29.4829L13.4175 29.4714L12.4188 29.524ZM11.9148 25.312L10.9198 25.4115L10.9223 25.4369L10.9262 25.4622L11.9148 25.312ZM11.6268 23.116L10.6361 23.252L10.6361 23.252L11.6268 23.116ZM11.5908 19.336L12.4229 19.8907L12.4361 19.8709L12.4483 19.8505L11.5908 19.336ZM12.7428 19.408L11.7942 19.7242L11.8057 19.7589L11.8198 19.7926L12.7428 19.408ZM12.9588 20.272L11.9623 20.355L11.9663 20.4033L11.975 20.4509L12.9588 20.272ZM13.0308 20.776H12.0308V20.9473L12.0879 21.1088L13.0308 20.776ZM13.3548 22.468L12.3598 22.5675L12.3602 22.5709L13.3548 22.468ZM13.5348 24.7L12.5367 24.7605L12.5367 24.7614L13.5348 24.7ZM13.8228 28.048L12.8329 28.1894L13.1892 30.6836L14.6403 28.624L13.8228 28.048ZM14.9388 26.464L15.7563 27.04L15.7617 27.0324L15.7669 27.0247L14.9388 26.464ZM19.1508 20.92L18.4126 20.2454L18.4063 20.2525L19.1508 20.92ZM22.8588 18.904L23.566 18.1969L23.2895 17.9204L22.8988 17.9048L22.8588 18.904ZM22.6428 20.092L23.4355 20.7017L23.4355 20.7017L22.6428 20.092ZM21.5628 21.316L22.2862 22.0065L22.287 22.0057L21.5628 21.316ZM20.8068 22.108L20.0835 21.4175L20.0628 21.4392L20.0435 21.4621L20.8068 22.108ZM18.3948 24.772L19.1194 25.4612L19.1255 25.4548L19.1315 25.4483L18.3948 24.772ZM16.0908 27.292L16.8483 27.9449L16.8483 27.9449L16.0908 27.292ZM14.7228 29.2L13.8436 28.7237L13.5445 29.2758L13.9118 29.785L14.7228 29.2ZM18.4668 33.088L17.8502 33.8753L17.8565 33.8801L18.4668 33.088ZM24.1908 37.084L23.644 37.9214L23.6558 37.9288L24.1908 37.084ZM25.2708 37.768L24.7358 38.6128L24.8179 38.6648L24.9084 38.7L25.2708 37.768ZM26.2788 38.452L25.5106 39.0922L25.5397 39.127L25.5717 39.1591L26.2788 38.452ZM26.5668 39.712L27.4306 40.2159L27.4469 40.188L27.4613 40.1592L26.5668 39.712ZM24.5508 39.64L23.9754 40.4578L24.0366 40.5009L24.1036 40.5344L24.5508 39.64ZM22.6068 38.272L23.1823 37.4542L23.1699 37.4454L23.1572 37.437L22.6068 38.272ZM17.2068 34.384L16.5791 35.1624L16.5791 35.1624L17.2068 34.384ZM14.1108 30.964L14.9932 30.4934L13.114 31.0437L14.1108 30.964ZM14.3268 33.664L13.33 33.7437L13.3306 33.751L14.3268 33.664ZM14.5068 39.82L15.3751 40.3161L15.3889 40.292L15.4013 40.2672L14.5068 39.82ZM14.0028 39.072C14.0807 39.072 14.1589 39.0982 14.2142 39.1356C14.2587 39.1656 14.254 39.1795 14.2198 39.1229C14.1424 38.9949 14.0335 38.7089 13.9452 38.1796L11.9724 38.5084C12.0762 39.1311 12.2373 39.7091 12.5079 40.1571C12.7945 40.6315 13.2859 41.072 14.0028 41.072V39.072ZM13.9488 38.2026C13.7888 37.0825 13.6461 35.0646 13.526 32.1114L11.5277 32.1926C11.6476 35.1434 11.7929 37.2535 11.9689 38.4854L13.9488 38.2026ZM13.526 32.1109L13.418 29.4829L11.4197 29.5651L11.5277 32.1931L13.526 32.1109ZM13.4175 29.4714C13.3667 28.5076 13.1923 27.0631 12.9035 25.1618L10.9262 25.4622C11.2134 27.3529 11.375 28.7164 11.4202 29.5766L13.4175 29.4714ZM12.9099 25.2125C12.8836 24.9494 12.7842 24.1943 12.6176 22.98L10.6361 23.252C10.8055 24.4857 10.8981 25.1946 10.9198 25.4115L12.9099 25.2125ZM12.6176 22.98C12.4539 21.7877 12.3748 20.7548 12.3748 19.876H10.3748C10.3748 20.8692 10.4638 21.9962 10.6361 23.252L12.6176 22.98ZM12.3748 19.876C12.3748 19.923 12.369 19.958 12.3645 19.9782C12.3601 19.9983 12.3561 20.0074 12.3573 20.0044C12.3585 20.0015 12.3632 19.9903 12.3742 19.9701C12.3852 19.9501 12.4009 19.9237 12.4229 19.8907L10.7588 18.7813C10.5816 19.0471 10.3748 19.4314 10.3748 19.876H12.3748ZM12.4483 19.8505C12.4657 19.8216 12.4524 19.8555 12.3885 19.898C12.3145 19.9474 12.2206 19.976 12.1308 19.976V17.976C11.4593 17.976 10.997 18.382 10.7333 18.8215L12.4483 19.8505ZM12.1308 19.976C12.1323 19.976 12.0459 19.9749 11.9412 19.901C11.8341 19.8254 11.7987 19.7379 11.7942 19.7242L13.6915 19.0918C13.591 18.7901 13.4056 18.4866 13.0945 18.267C12.7858 18.0491 12.4414 17.976 12.1308 17.976V19.976ZM11.8198 19.7926C11.9029 19.9922 11.9476 20.1787 11.9623 20.355L13.9554 20.189C13.9221 19.7893 13.8228 19.3998 13.6659 19.0234L11.8198 19.7926ZM11.975 20.4509C11.9978 20.5767 12.0134 20.671 12.0229 20.7374C12.0276 20.7706 12.0301 20.7918 12.0313 20.8035C12.0329 20.8193 12.0308 20.8059 12.0308 20.776H14.0308C14.0308 20.5945 13.9854 20.328 13.9427 20.0931L11.975 20.4509ZM12.0879 21.1088C12.1934 21.4079 12.2912 21.8815 12.3598 22.5675L14.3499 22.3685C14.2745 21.6145 14.1563 20.9601 13.9738 20.4432L12.0879 21.1088ZM12.3602 22.5709C12.4305 23.2511 12.4894 23.9808 12.5367 24.7605L14.533 24.6395C14.4843 23.8352 14.4232 23.0769 14.3495 22.3651L12.3602 22.5709ZM12.5367 24.7614C12.6328 26.3229 12.7307 27.474 12.8329 28.1894L14.8128 27.9066C14.723 27.278 14.6289 26.1971 14.533 24.6386L12.5367 24.7614ZM14.6403 28.624L15.7563 27.04L14.1214 25.888L13.0054 27.472L14.6403 28.624ZM15.7669 27.0247C17.3125 24.7419 18.6884 22.9339 19.8954 21.5875L18.4063 20.2525C17.1173 21.6901 15.6852 23.5781 14.1108 25.9033L15.7669 27.0247ZM19.8891 21.5946C21.0752 20.2965 22.0475 19.8723 22.8189 19.9032L22.8988 17.9048C21.2702 17.8397 19.7705 18.7595 18.4126 20.2454L19.8891 21.5946ZM22.1517 19.6111C22.1089 19.5683 22.0672 19.5094 22.0384 19.4374C22.01 19.3665 22.0028 19.3047 22.0028 19.264H24.0028C24.0028 18.8726 23.8617 18.4927 23.566 18.1969L22.1517 19.6111ZM22.0028 19.264C22.0028 19.2167 22.0145 19.2092 21.9958 19.2523C21.9767 19.2962 21.9346 19.3726 21.8502 19.4823L23.4355 20.7017C23.7308 20.3177 24.0028 19.8263 24.0028 19.264H22.0028ZM21.8502 19.4823C21.6419 19.7531 21.3098 20.1317 20.8387 20.6263L22.287 22.0057C22.7759 21.4923 23.1638 21.0549 23.4355 20.7017L21.8502 19.4823ZM20.8395 20.6255L20.0835 21.4175L21.5302 22.7985L22.2862 22.0065L20.8395 20.6255ZM20.0435 21.4621C19.7959 21.7547 19.009 22.6243 17.6582 24.0957L19.1315 25.4483C20.4686 23.9917 21.2898 23.0853 21.5702 22.7539L20.0435 21.4621ZM17.6703 24.0828C16.7278 25.0736 15.9478 25.9264 15.3334 26.6391L16.8483 27.9449C17.4339 27.2656 18.1899 26.4384 19.1194 25.4612L17.6703 24.0828ZM15.3334 26.6391C14.7038 27.3695 14.2003 28.0651 13.8436 28.7237L15.6021 29.6763C15.8694 29.1829 16.2779 28.6065 16.8483 27.9449L15.3334 26.6391ZM13.9118 29.785C15.0235 31.3262 16.3372 32.6901 17.8502 33.8752L19.0835 32.3008C17.7165 31.2299 16.5342 30.0018 15.5339 28.615L13.9118 29.785ZM17.8565 33.8801C19.3487 35.0299 21.2802 36.3775 23.6441 37.9213L24.7376 36.2467C22.3975 34.7185 20.513 33.4021 19.0772 32.2959L17.8565 33.8801ZM23.6558 37.9288L24.7358 38.6128L25.8059 36.9232L24.7259 36.2392L23.6558 37.9288ZM24.9084 38.7C25.2195 38.821 25.4018 38.9616 25.5106 39.0922L27.0471 37.8118C26.6759 37.3664 26.1862 37.051 25.6333 36.836L24.9084 38.7ZM25.5717 39.1591C25.6406 39.228 25.6661 39.2724 25.6737 39.2885C25.6794 39.3003 25.6748 39.2945 25.6748 39.28H27.6748C27.6748 38.6547 27.3795 38.1384 26.986 37.7449L25.5717 39.1591ZM25.6748 39.28C25.6748 39.2742 25.6752 39.2688 25.6758 39.264C25.6764 39.2592 25.6772 39.2556 25.6777 39.2535C25.6788 39.249 25.6785 39.2526 25.6724 39.2648L27.4613 40.1592C27.5944 39.8929 27.6748 39.5968 27.6748 39.28H25.6748ZM25.7031 39.2081C25.6683 39.2678 25.6639 39.2524 25.7112 39.219C25.7366 39.2011 25.773 39.1809 25.8196 39.1658C25.8666 39.1505 25.9131 39.144 25.9548 39.144V41.144C26.6821 41.144 27.1615 40.6773 27.4306 40.2159L25.7031 39.2081ZM25.9548 39.144C25.999 39.144 25.9475 39.15 25.7437 39.0768C25.5607 39.0111 25.3145 38.9038 24.9981 38.7456L24.1036 40.5344C24.4592 40.7122 24.7829 40.8569 25.068 40.9592C25.3322 41.054 25.6466 41.144 25.9548 41.144V39.144ZM25.1263 38.8222L23.1823 37.4542L22.0314 39.0898L23.9754 40.4578L25.1263 38.8222ZM23.1572 37.437C21.0639 36.0574 19.2912 34.7803 17.8346 33.6056L16.5791 35.1624C18.0984 36.3877 19.9258 37.7026 22.0565 39.107L23.1572 37.437ZM17.8346 33.6056C16.3988 32.4477 15.4804 31.407 14.9932 30.4934L13.2285 31.4346C13.8933 32.681 15.0389 33.9203 16.5791 35.1624L17.8346 33.6056ZM13.114 31.0437L13.33 33.7437L15.3237 33.5843L15.1077 30.8843L13.114 31.0437ZM13.3306 33.751C13.5472 36.2298 13.6508 37.8427 13.6508 38.632H15.6508C15.6508 37.7413 15.5385 36.0422 15.323 33.577L13.3306 33.751ZM13.6508 38.632C13.6508 38.9097 13.6395 39.1151 13.6221 39.2587C13.6135 39.3297 13.6046 39.375 13.5985 39.3999C13.5917 39.4279 13.5926 39.4124 13.6124 39.3728L15.4013 40.2672C15.5272 40.0153 15.5795 39.7309 15.6076 39.4993C15.6382 39.2469 15.6508 38.9543 15.6508 38.632H13.6508ZM13.6386 39.3239C13.6854 39.2419 13.7635 39.1636 13.8616 39.1146C13.9496 39.0706 14.0094 39.072 14.0028 39.072V41.072C14.5008 41.072 15.0561 40.8744 15.3751 40.3161L13.6386 39.3239ZM45.0835 32.98L44.3516 33.6614L44.3576 33.6678L44.3637 33.6741L45.0835 32.98ZM42.6715 31.216L43.1187 30.3216L43.1187 30.3216L42.6715 31.216ZM38.7475 29.524L39.1119 28.5928L39.088 28.5834L39.0637 28.5753L38.7475 29.524ZM37.7035 29.128L37.3287 30.0552L37.3391 30.0592L37.7035 29.128ZM32.4835 26.392L31.8784 27.1882L31.886 27.1939L32.4835 26.392ZM32.5915 19.228L32.0515 18.3863L32.0515 18.3863L32.5915 19.228ZM41.5195 18.58L41.2202 19.5341L41.2312 19.5376L41.2423 19.5408L41.5195 18.58ZM44.4715 20.092L43.8025 20.8353L43.8086 20.8407L43.8147 20.8461L44.4715 20.092ZM45.5875 22.288L46.0347 23.1824L46.5875 22.906V22.288H45.5875ZM43.8595 22.324L43.4123 23.2184L43.4555 23.24L43.5005 23.2573L43.8595 22.324ZM42.5635 21.64L43.0398 20.7607L43.0376 20.7595L42.5635 21.64ZM39.9355 20.452L39.5784 21.3861L39.5905 21.3907L39.6027 21.395L39.9355 20.452ZM33.6715 20.704L34.1571 21.5782L34.1571 21.5782L33.6715 20.704ZM33.2395 24.556L32.5476 25.278L32.5549 25.285L32.5624 25.2919L33.2395 24.556ZM35.4715 26.032L35.034 26.9312L35.0485 26.9383L35.0631 26.9448L35.4715 26.032ZM39.1075 27.508L39.4688 26.5755L39.4635 26.5735L39.1075 27.508ZM43.8595 29.596L43.3987 30.4835L43.3987 30.4835L43.8595 29.596ZM47.0275 32.08L46.2682 32.7308L46.2766 32.7405L46.2851 32.75L47.0275 32.08ZM46.0555 39.352L46.5458 40.2236L46.556 40.2177L46.0555 39.352ZM35.0035 39.856L34.7149 40.8135L34.7149 40.8135L35.0035 39.856ZM30.5035 37.516L29.8575 38.2794L29.8662 38.2866L30.5035 37.516ZM28.1275 33.736H27.1275V33.8493L27.1528 33.9597L28.1275 33.736ZM28.6675 32.08L29.4524 32.6996L29.4601 32.6899L29.4675 32.68L28.6675 32.08ZM29.9995 31.36H30.9995V30.36H29.9995V31.36ZM31.2955 35.356L30.508 35.9723L30.5154 35.9818L30.5231 35.9911L31.2955 35.356ZM34.8595 37.804L34.5117 38.7416L34.5166 38.7434L34.8595 37.804ZM36.4795 16.42V17.42H36.8937L37.1866 17.1271L36.4795 16.42ZM35.7595 16.276L35.0524 16.9831L35.0916 17.0223L35.1348 17.0569L35.7595 16.276ZM36.7675 13.828L36.096 13.087L36.096 13.087L36.7675 13.828ZM39.7195 11.452L40.3143 12.2558L40.3227 12.2496L40.3309 12.2433L39.7195 11.452ZM40.5115 10.84L40.9587 9.94557L40.397 9.66471L39.9001 10.0487L40.5115 10.84ZM40.6195 12.604L39.89 11.9201L39.8782 11.9326L39.8669 11.9455L40.6195 12.604ZM38.8915 14.224L39.5391 14.9859L39.5404 14.9848L38.8915 14.224ZM39.8635 39.632C41.9022 39.632 43.6083 39.3498 44.8906 38.6944L43.9804 36.9136C43.1027 37.3622 41.7608 37.632 39.8635 37.632V39.632ZM44.8906 38.6944C45.5443 38.3603 46.0949 37.9189 46.4806 37.3446C46.8714 36.7628 47.0555 36.0999 47.0555 35.392H45.0555C45.0555 35.7401 44.9696 36.0072 44.8204 36.2294C44.6661 36.4591 44.4067 36.6957 43.9804 36.9136L44.8906 38.6944ZM47.0555 35.392C47.0555 34.1978 46.6316 33.1448 45.8033 32.2859L44.3637 33.6741C44.8314 34.1592 45.0555 34.7142 45.0555 35.392H47.0555ZM45.8154 32.2986C45.0762 31.5046 44.1719 30.8482 43.1187 30.3216L42.2243 32.1104C43.0911 32.5438 43.7948 33.0634 44.3516 33.6614L45.8154 32.2986ZM43.1187 30.3216C42.1199 29.8222 40.7804 29.2456 39.1119 28.5928L38.3831 30.4552C40.0266 31.0984 41.3031 31.6498 42.2243 32.1104L43.1187 30.3216ZM39.0637 28.5753C38.9494 28.5372 38.6284 28.4161 38.0679 28.1968L37.3391 30.0592C37.8826 30.2719 38.2576 30.4148 38.4313 30.4727L39.0637 28.5753ZM38.0783 28.2009C35.8606 27.3044 34.2083 26.4301 33.081 25.5901L31.886 27.1939C33.2067 28.1779 35.0344 29.1276 37.3287 30.0551L38.0783 28.2009ZM33.0886 25.5958C32.1238 24.8626 31.6835 23.9748 31.6835 22.864H29.6835C29.6835 24.6332 30.4432 26.0974 31.8784 27.1882L33.0886 25.5958ZM31.6835 22.864C31.6835 21.5704 32.1675 20.6881 33.1315 20.0697L32.0515 18.3863C30.4715 19.3999 29.6835 20.9416 29.6835 22.864H31.6835ZM33.1315 20.0697C34.1985 19.3851 35.6272 19.004 37.4875 19.004V17.004C35.3638 17.004 33.5285 17.4389 32.0515 18.3863L33.1315 20.0697ZM37.4875 19.004C38.864 19.004 40.1056 19.1845 41.2202 19.5341L41.8188 17.6259C40.4854 17.2075 39.039 17.004 37.4875 17.004V19.004ZM41.2423 19.5408C42.3922 19.8725 43.2266 20.3169 43.8025 20.8353L45.1405 19.3487C44.2764 18.5711 43.1428 18.0075 41.7967 17.6192L41.2423 19.5408ZM43.8147 20.8461C44.3905 21.3475 44.5875 21.8212 44.5875 22.288H46.5875C46.5875 21.1228 46.0405 20.1325 45.1283 19.3379L43.8147 20.8461ZM45.1403 21.3936C44.9611 21.4832 44.8378 21.504 44.7595 21.504V23.504C45.2092 23.504 45.6379 23.3808 46.0347 23.1824L45.1403 21.3936ZM44.7595 21.504C44.6123 21.504 44.4341 21.4736 44.2185 21.3907L43.5005 23.2573C43.9089 23.4144 44.3307 23.504 44.7595 23.504V21.504ZM44.3067 21.4296C44.034 21.2932 43.6138 21.0717 43.0398 20.7607L42.0872 22.5193C42.6652 22.8323 43.109 23.0668 43.4123 23.2184L44.3067 21.4296ZM43.0376 20.7595C42.066 20.2364 41.1425 19.8175 40.2683 19.509L39.6027 21.395C40.3605 21.6625 41.189 22.0356 42.0894 22.5205L43.0376 20.7595ZM40.2926 19.5179C39.337 19.1525 38.2507 18.984 37.0555 18.984V20.984C38.0683 20.984 38.902 21.1275 39.5784 21.3861L40.2926 19.5179ZM37.0555 18.984C35.5591 18.984 34.2468 19.2404 33.1859 19.8298L34.1571 21.5782C34.8242 21.2076 35.7679 20.984 37.0555 20.984V18.984ZM33.1859 19.8298C32.0596 20.4556 31.3755 21.4338 31.3755 22.72H33.3755C33.3755 22.2782 33.5554 21.9124 34.1571 21.5782L33.1859 19.8298ZM31.3755 22.72C31.3755 23.7152 31.8146 24.5756 32.5476 25.278L33.9314 23.834C33.5124 23.4324 33.3755 23.0688 33.3755 22.72H31.3755ZM32.5624 25.2919C33.2472 25.9219 34.0764 26.4654 35.034 26.9312L35.909 25.1328C35.0906 24.7346 34.4318 24.2941 33.9166 23.8201L32.5624 25.2919ZM35.0631 26.9448C35.9996 27.3638 37.2312 27.8633 38.7515 28.4425L39.4635 26.5735C37.9598 26.0007 36.7674 25.5162 35.8799 25.1192L35.0631 26.9448ZM38.7462 28.4404C40.6463 29.1767 42.1941 29.858 43.3987 30.4835L44.3203 28.7085C43.0289 28.038 41.4087 27.3273 39.4688 26.5756L38.7462 28.4404ZM43.3987 30.4835C44.5398 31.076 45.4925 31.8258 46.2682 32.7308L47.7868 31.4292C46.8345 30.3182 45.6752 29.412 44.3203 28.7085L43.3987 30.4835ZM46.2851 32.75C47.0015 33.5438 47.3595 34.4788 47.3595 35.608H49.3595C49.3595 34.0012 48.8295 32.5842 47.7699 31.41L46.2851 32.75ZM47.3595 35.608C47.3595 36.8164 46.8206 37.7546 45.555 38.4863L46.556 40.2177C48.3624 39.1734 49.3595 37.6156 49.3595 35.608H47.3595ZM45.5652 38.4804C44.2166 39.239 42.4889 39.648 40.3315 39.648V41.648C42.7341 41.648 44.8224 41.193 46.5458 40.2236L45.5652 38.4804ZM40.3315 39.648C38.6309 39.648 36.952 39.3988 35.2921 38.8985L34.7149 40.8135C36.559 41.3692 38.4321 41.648 40.3315 41.648V39.648ZM35.2921 38.8985C33.6511 38.404 32.2736 37.6821 31.1408 36.7454L29.8662 38.2866C31.2294 39.4139 32.8519 40.252 34.7149 40.8135L35.2921 38.8985ZM31.1494 36.7526C30.051 35.8232 29.3855 34.7467 29.1022 33.5123L27.1528 33.9597C27.5415 35.6533 28.46 37.0968 29.8576 38.2794L31.1494 36.7526ZM29.1275 33.736C29.1275 33.2854 29.2478 32.9588 29.4524 32.6996L27.8826 31.4604C27.3672 32.1132 27.1275 32.8906 27.1275 33.736H29.1275ZM29.4675 32.68C29.6681 32.4126 29.8323 32.36 29.9995 32.36V30.36C29.1107 30.36 28.3869 30.7874 27.8675 31.48L29.4675 32.68ZM28.9995 31.36C28.9995 33.1168 29.4907 34.6725 30.508 35.9723L32.083 34.7397C31.3723 33.8315 30.9995 32.7232 30.9995 31.36H28.9995ZM30.5231 35.9911C31.5379 37.2253 32.8807 38.1365 34.5117 38.7416L35.2073 36.8664C33.8623 36.3675 32.8291 35.6467 32.0679 34.7209L30.5231 35.9911ZM34.5166 38.7434C36.1521 39.3404 37.9379 39.632 39.8635 39.632V37.632C38.1411 37.632 36.591 37.3716 35.2024 36.8646L34.5166 38.7434ZM36.4795 15.42C36.4111 15.42 36.3557 15.4177 36.3117 15.4142C36.2673 15.4106 36.2396 15.4062 36.2256 15.4034C36.2107 15.4004 36.2192 15.4008 36.2434 15.4105C36.2669 15.4199 36.3205 15.4442 36.3842 15.4951L35.1348 17.0569C35.3724 17.2469 35.6399 17.3259 35.8334 17.3646C36.0404 17.406 36.2613 17.42 36.4795 17.42V15.42ZM36.4666 15.5689C36.5514 15.6537 36.5929 15.734 36.6103 15.7731C36.6282 15.8133 36.6318 15.8353 36.6301 15.827C36.6286 15.8202 36.6246 15.7979 36.6212 15.7559C36.6178 15.7146 36.6155 15.6605 36.6155 15.592H34.6155C34.6155 15.8081 34.6292 16.0312 34.673 16.239C34.7116 16.4225 34.8005 16.7312 35.0524 16.9831L36.4666 15.5689ZM36.6155 15.592C36.6155 15.6166 36.6085 15.5404 36.7408 15.3378C36.8696 15.1405 37.0913 14.8841 37.439 14.569L36.096 13.087C35.6757 13.4679 35.3214 13.8535 35.0662 14.2442C34.8145 14.6296 34.6155 15.0874 34.6155 15.592H36.6155ZM37.439 14.569C38.1745 13.9025 39.1304 13.1319 40.3143 12.2558L39.1247 10.6482C37.9086 11.5481 36.8965 12.3615 36.096 13.087L37.439 14.569ZM40.3309 12.2433L41.1229 11.6313L39.9001 10.0487L39.1081 10.6607L40.3309 12.2433ZM40.0643 11.7344C40.1336 11.7691 40.1802 11.7982 40.2095 11.8194C40.239 11.8407 40.2448 11.8495 40.2382 11.8418C40.2308 11.8331 40.2095 11.8057 40.1905 11.7581C40.1707 11.7087 40.1595 11.6525 40.1595 11.596H42.1595C42.1595 10.7176 41.4858 10.2091 40.9587 9.94557L40.0643 11.7344ZM40.1595 11.596C40.1595 11.5306 40.1795 11.5238 40.143 11.5918C40.1065 11.66 40.0312 11.7694 39.89 11.9201L41.349 13.2879C41.7536 12.8564 42.1595 12.2789 42.1595 11.596H40.1595ZM39.8669 11.9455C39.5817 12.2715 39.0526 12.7722 38.2426 13.4632L39.5404 14.9848C40.3624 14.2838 40.9853 13.7045 41.3721 13.2625L39.8669 11.9455ZM38.2439 13.4621C37.2703 14.2896 36.445 15.0403 35.7724 15.7129L37.1866 17.1271C37.81 16.5037 38.5927 15.7904 39.5391 14.9859L38.2439 13.4621Z" fill="#F7E018"/>
</svg>
