<svg width="291" height="40" viewBox="0 0 291 40" fill="none" xmlns="http://www.w3.org/2000/svg">
<path d="M4.384 39.096C3.712 39.096 3.248 38.328 2.992 36.792C2.768 35.224 2.576 32.472 2.416 28.536L2.272 25.032C2.208 23.816 1.984 21.944 1.6 19.416C1.568 19.096 1.44 18.12 1.216 16.488C0.992 14.856 0.88 13.416 0.88 12.168C0.88 11.976 0.976 11.736 1.168 11.448C1.36 11.128 1.6 10.968 1.888 10.968C2.304 10.968 2.576 11.16 2.704 11.544C2.864 11.928 2.96 12.312 2.992 12.696C3.056 13.048 3.088 13.272 3.088 13.368C3.28 13.912 3.424 14.664 3.52 15.624C3.616 16.552 3.696 17.544 3.76 18.6C3.888 20.68 4.016 22.168 4.144 23.064L5.632 20.952C7.712 17.88 9.584 15.416 11.248 13.56C12.944 11.704 14.592 10.808 16.192 10.872C16.32 11 16.384 11.16 16.384 11.352C16.384 11.672 16.224 12.04 15.904 12.456C15.584 12.872 15.104 13.416 14.464 14.088L13.456 15.144C13.104 15.56 12.032 16.744 10.24 18.696C8.992 20.008 7.968 21.128 7.168 22.056C6.368 22.984 5.76 23.832 5.344 24.6C6.752 26.552 8.416 28.28 10.336 29.784C12.288 31.288 14.832 33.064 17.968 35.112L19.408 36.024C19.984 36.248 20.432 36.552 20.752 36.936C21.104 37.288 21.28 37.656 21.28 38.04C21.28 38.232 21.232 38.424 21.136 38.616C20.912 39 20.64 39.192 20.32 39.192C19.968 39.192 19.344 38.968 18.448 38.52L15.856 36.696C13.04 34.84 10.64 33.112 8.656 31.512C6.672 29.912 5.296 28.392 4.528 26.952L4.816 30.552C5.104 33.848 5.248 36.056 5.248 37.176C5.248 37.976 5.184 38.504 5.056 38.76C4.928 38.984 4.704 39.096 4.384 39.096Z" fill="#F7E018"/>
<path d="M35.5529 39C32.2249 39 29.3289 38.424 26.8649 37.272C24.4329 36.088 23.2169 34.024 23.2169 31.08C23.2169 30.024 23.5369 29 24.1769 28.008C24.8169 27.016 25.7609 26.216 27.0089 25.608C28.2569 24.968 29.7769 24.648 31.5689 24.648C32.9449 24.648 34.1129 24.712 35.0729 24.84C36.0329 24.968 37.1369 25.32 38.3849 25.896C39.6329 26.472 40.9289 27.384 42.2729 28.632C41.7609 26.424 40.9929 24.488 39.9689 22.824C38.9449 21.16 37.7929 19.88 36.5129 18.984C35.2649 18.056 34.0329 17.592 32.8169 17.592C32.2409 17.592 31.6969 17.704 31.1849 17.928C30.7049 18.12 30.1129 18.408 29.4089 18.792C28.6089 19.304 28.0169 19.56 27.6329 19.56C27.4729 19.56 27.3289 19.512 27.2009 19.416C27.1049 19.288 27.0569 19.144 27.0569 18.984C27.0569 17.704 27.6169 16.712 28.7369 16.008C29.8889 15.304 31.2809 14.984 32.9129 15.048C35.1529 15.176 37.2009 16.136 39.0569 17.928C40.9129 19.688 42.3689 21.88 43.4249 24.504C44.5129 27.128 45.0569 29.704 45.0569 32.232C45.0569 32.648 45.0249 33.24 44.9609 34.008L43.4249 33.912C42.2089 31.448 40.6409 29.704 38.7209 28.68C36.8329 27.624 34.9289 27.096 33.0089 27.096C30.5449 27.096 28.7849 27.464 27.7289 28.2C26.6729 28.936 26.1449 30.008 26.1449 31.416C26.1449 32.888 26.8809 34.072 28.3529 34.968C29.8249 35.864 31.7129 36.312 34.0169 36.312C35.2969 36.312 36.3209 36.248 37.0889 36.12C37.8569 35.96 38.6569 35.752 39.4889 35.496C40.1609 35.272 40.7529 35.112 41.2649 35.016C41.7769 34.92 42.4329 34.872 43.2329 34.872C44.1289 34.872 44.6889 34.936 44.9129 35.064C45.1689 35.192 45.2969 35.48 45.2969 35.928C45.2969 36.248 44.6409 36.648 43.3289 37.128C42.0169 37.608 40.5449 38.04 38.9129 38.424C37.2809 38.808 36.1609 39 35.5529 39ZM53.3628 39C52.0508 36.44 51.0108 33.432 50.2428 29.976C49.5068 26.52 49.1388 23.528 49.1388 21C49.1388 20.008 49.3628 19.368 49.8108 19.08C50.0668 18.92 50.2588 18.84 50.3867 18.84C50.6108 18.84 50.7708 19.016 50.8668 19.368C50.9948 19.72 51.1228 20.36 51.2508 21.288L51.4908 23.016C51.8428 21.288 52.5148 19.928 53.5068 18.936C54.5308 17.912 55.7788 17.4 57.2508 17.4C58.8828 17.4 60.0988 17.72 60.8988 18.36C61.6988 18.968 62.0988 19.992 62.0988 21.432C60.4988 20.664 59.0428 20.28 57.7308 20.28C56.4828 20.28 55.4108 20.616 54.5148 21.288C53.6188 21.96 52.9948 22.952 52.6428 24.264C52.3548 25.16 52.2108 26.008 52.2108 26.808C52.2108 27.672 52.3228 28.488 52.5468 29.256C52.8028 29.992 53.1868 30.904 53.6988 31.992C54.1788 33.112 54.5468 34.072 54.8028 34.872C55.0908 35.672 55.2508 36.536 55.2828 37.464C55.2828 38.008 55.0908 38.408 54.7068 38.664C54.3228 38.888 53.8748 39 53.3628 39ZM73.9341 39.048C72.0461 39.048 70.3341 38.632 68.7981 37.8C67.2941 36.936 66.1101 35.752 65.2461 34.248C64.4141 32.712 63.9981 30.968 63.9981 29.016C63.9981 25.816 65.1661 23.432 67.5021 21.864C69.8701 20.296 72.7661 19.512 76.1901 19.512C77.7581 19.512 79.2141 19.896 80.5581 20.664C81.9341 21.432 83.0381 22.536 83.8701 23.976C84.7021 25.416 85.1181 27.08 85.1181 28.968C85.1181 31.016 84.5901 32.808 83.5341 34.344C82.4781 35.848 81.0861 37.016 79.3581 37.848C77.6621 38.648 75.8541 39.048 73.9341 39.048ZM73.4061 36.312C76.3821 36.312 78.6381 35.64 80.1741 34.296C81.7101 32.952 82.4781 30.984 82.4781 28.392C82.4781 26.632 81.8701 25.112 80.6541 23.832C79.4701 22.552 77.8061 21.912 75.6621 21.912C74.2221 21.912 72.7661 22.184 71.2941 22.728C69.8221 23.272 68.6061 24.088 67.6461 25.176C66.6861 26.264 66.2061 27.576 66.2061 29.112C66.2061 30.392 66.5261 31.592 67.1661 32.712C67.8061 33.8 68.6701 34.68 69.7581 35.352C70.8781 35.992 72.0941 36.312 73.4061 36.312ZM90.1225 38.664C89.4185 35.176 88.8745 31.048 88.4905 26.28C88.1385 21.48 87.9625 16.84 87.9625 12.36C87.9625 10.12 88.0105 8.136 88.1065 6.408C88.1065 5.992 88.4265 5.784 89.0665 5.784C89.5785 5.784 89.8985 5.912 90.0265 6.168C90.1865 6.424 90.2665 6.824 90.2665 7.368C90.2665 12.552 90.3625 16.984 90.5545 20.664C90.7465 24.312 91.0025 28.248 91.3225 32.472C91.5145 35.192 91.6425 37.032 91.7065 37.992C91.7385 38.504 91.4665 38.76 90.8905 38.76C90.6985 38.76 90.4425 38.728 90.1225 38.664ZM169.494 39.048C169.014 39.048 168.726 38.92 168.63 38.664C168.534 38.376 168.486 37.944 168.486 37.368C168.518 37.144 168.534 36.888 168.534 36.6C168.534 36.28 168.55 36.04 168.582 35.88C168.774 34.344 168.87 32.888 168.87 31.512C168.87 28.472 168.358 26.104 167.334 24.408C166.31 22.68 164.694 21.816 162.486 21.816C161.27 21.816 160.054 22.12 158.838 22.728C157.654 23.336 156.678 24.088 155.91 24.984C155.174 25.88 154.806 26.696 154.806 27.432C154.966 28.36 155.254 29.496 155.67 30.84C155.702 31 155.83 31.496 156.054 32.328C156.31 33.16 156.438 33.912 156.438 34.584L156.486 35.496C156.486 36.008 156.23 36.264 155.718 36.264C155.078 36.264 154.55 35.848 154.134 35.016C153.75 34.184 153.318 32.888 152.838 31.128C152.358 29.4 151.894 27.976 151.446 26.856C150.998 25.736 150.39 24.776 149.622 23.976C148.854 23.176 147.878 22.776 146.694 22.776C145.062 22.776 143.782 23.336 142.854 24.456C141.958 25.576 141.51 26.952 141.51 28.584C141.51 29.672 141.606 31.112 141.798 32.904C141.958 34.248 142.038 35.4 142.038 36.36C142.038 36.936 141.974 37.368 141.846 37.656C141.718 37.944 141.414 38.088 140.934 38.088C140.294 38.088 139.846 37.88 139.59 37.464C139.334 37.016 139.206 36.344 139.206 35.448C139.206 33.688 139.11 31.56 138.918 29.064C138.886 28.744 138.822 27.928 138.726 26.616C138.63 25.272 138.614 23.928 138.678 22.584L138.726 21C138.918 20.808 139.142 20.712 139.398 20.712C139.75 20.712 140.038 20.936 140.262 21.384C140.518 21.8 140.646 22.44 140.646 23.304C141.126 22.472 141.83 21.72 142.758 21.048C143.686 20.376 144.662 20.04 145.686 20.04C147.446 20.04 148.902 20.408 150.054 21.144C151.238 21.848 152.31 23 153.27 24.6C154.166 22.968 155.51 21.576 157.302 20.424C159.126 19.272 160.998 18.696 162.918 18.696C164.902 18.696 166.55 19.448 167.862 20.952C169.206 22.456 170.182 24.264 170.79 26.376C171.43 28.488 171.75 30.44 171.75 32.232C171.75 33.832 171.606 35.368 171.318 36.84C171.062 38.312 170.454 39.048 169.494 39.048ZM178.824 39.048C178.088 39.048 177.496 37.976 177.048 35.832C176.6 33.656 176.312 31.784 176.184 30.216C176.056 28.648 175.88 26.168 175.656 22.776C175.624 22.232 175.608 21.528 175.608 20.664C175.608 19.576 175.688 18.824 175.848 18.408C176.04 17.992 176.344 17.784 176.76 17.784C177.112 17.784 177.384 17.864 177.576 18.024C177.8 18.152 177.992 18.376 178.152 18.696L178.104 20.616C178.104 22.664 178.2 24.6 178.392 26.424C178.616 28.248 178.952 30.696 179.4 33.768C179.656 35.112 179.832 36.216 179.928 37.08C179.992 37.528 179.911 37.976 179.688 38.424C179.464 38.84 179.176 39.048 178.824 39.048ZM177.624 12.648C176.92 12.648 176.392 12.376 176.04 11.832C175.72 11.288 175.56 10.616 175.56 9.816C175.56 9.464 175.576 9.208 175.608 9.048C175.576 8.536 175.864 8.28 176.472 8.28C176.92 8.28 177.368 8.392 177.816 8.616C178.296 8.808 178.44 8.952 178.248 9.048C178.568 9.88 178.728 10.536 178.728 11.016C178.728 11.432 178.632 11.768 178.44 12.024C178.248 12.248 177.976 12.456 177.624 12.648ZM195.561 39C193.513 39 191.625 38.6 189.897 37.8C188.169 37 186.793 35.864 185.769 34.392C184.745 32.92 184.233 31.224 184.233 29.304C184.233 27.16 184.633 25.16 185.433 23.304C186.233 21.416 187.401 19.912 188.937 18.792C190.505 17.64 192.329 17.064 194.409 17.064C196.585 17.064 198.233 17.768 199.353 19.176C200.473 20.552 201.001 22.296 200.937 24.408C200.937 26.296 200.185 27.736 198.681 28.728C197.209 29.72 195.321 30.216 193.017 30.216C192.665 30.216 192.137 30.184 191.433 30.12C190.281 29.992 189.465 29.816 188.985 29.592C188.505 29.368 188.265 28.92 188.265 28.248C188.265 28.024 188.329 27.864 188.457 27.768C188.585 27.64 188.841 27.576 189.225 27.576C189.641 27.576 190.377 27.672 191.433 27.864C192.457 28.056 193.369 28.152 194.169 28.152C197.113 28.152 198.585 26.872 198.585 24.312C198.585 22.776 198.297 21.56 197.721 20.664C197.177 19.768 196.201 19.32 194.793 19.32C193.257 19.32 191.881 19.736 190.665 20.568C189.449 21.368 188.505 22.424 187.833 23.736C187.193 25.048 186.873 26.44 186.873 27.912C186.873 30.44 187.577 32.52 188.985 34.152C190.393 35.752 192.569 36.552 195.513 36.552C195.865 36.552 196.457 36.52 197.289 36.456C197.641 36.424 198.073 36.328 198.585 36.168C199.097 36.008 199.465 35.896 199.689 35.832C201.065 35.352 202.073 35.112 202.713 35.112C203.193 35.112 203.561 35.24 203.817 35.496C203.017 36.712 201.817 37.608 200.217 38.184C198.649 38.728 197.097 39 195.561 39ZM205.988 33.336C206.436 32.984 206.868 32.808 207.284 32.808C207.668 32.808 208.036 32.92 208.388 33.144C208.772 33.368 209.156 33.656 209.54 34.008C209.924 34.328 210.228 34.568 210.452 34.728C211.188 35.304 212.196 35.752 213.476 36.072C214.756 36.392 216.116 36.552 217.556 36.552C219.188 36.552 220.644 36.248 221.924 35.64C223.236 35 223.892 34.152 223.892 33.096C223.892 32.136 223.54 31.384 222.836 30.84C222.132 30.264 221.284 29.848 220.292 29.592C219.3 29.336 217.988 29.096 216.356 28.872C214.148 28.616 212.388 28.296 211.076 27.912C209.796 27.528 208.772 26.904 208.004 26.04C207.236 25.144 206.852 23.896 206.852 22.296C206.852 20.568 207.668 19.288 209.3 18.456C210.932 17.592 212.804 17.16 214.916 17.16C216.836 17.16 218.468 17.576 219.812 18.408C221.188 19.208 221.892 20.36 221.924 21.864C221.988 22.728 221.86 23.416 221.54 23.928C221.22 24.408 220.836 24.648 220.388 24.648C220.132 24.648 219.908 24.552 219.716 24.36C219.556 24.168 219.476 23.912 219.476 23.592C219.476 23.08 219.652 22.52 220.004 21.912C219.844 21.144 219.316 20.568 218.42 20.184C217.556 19.8 216.516 19.608 215.3 19.608C213.508 19.608 212.084 19.944 211.028 20.616C209.972 21.256 209.444 22.024 209.444 22.92C209.444 23.88 209.828 24.616 210.596 25.128C211.364 25.64 212.292 26.008 213.38 26.232C214.5 26.424 216.084 26.616 218.132 26.808C219.828 27.032 221.204 27.304 222.26 27.624C223.348 27.944 224.26 28.568 224.996 29.496C225.732 30.392 226.1 31.688 226.1 33.384C226.1 35.144 225.284 36.536 223.652 37.56C222.02 38.552 220.068 39.048 217.796 39.048C214.884 39.048 212.276 38.552 209.972 37.56C207.7 36.568 206.372 35.16 205.988 33.336ZM247.402 33.624C248.042 34.104 248.362 34.616 248.362 35.16C248.362 36.024 247.626 36.744 246.154 37.32C244.682 37.896 243.018 38.328 241.162 38.616C239.306 38.872 237.834 39 236.746 39C235.53 39 234.362 38.808 233.242 38.424C232.154 38.008 231.61 37.304 231.61 36.312C231.61 35.352 232.138 34.104 233.194 32.568C234.282 31.032 235.578 29.464 237.082 27.864H230.89C230.57 27.864 230.41 27.576 230.41 27C230.41 26.552 230.458 26.248 230.554 26.088C230.65 25.896 230.778 25.784 230.938 25.752C231.098 25.72 231.402 25.704 231.85 25.704H239.242C240.426 24.2 241.322 22.92 241.93 21.864C242.57 20.776 242.89 19.768 242.89 18.84C242.89 17.912 242.57 17.08 241.93 16.344C240.938 16.152 239.978 16.056 239.05 16.056C237.29 16.056 235.802 16.36 234.586 16.968C233.37 17.544 232.698 18.312 232.57 19.272C231.834 19.272 231.338 19.144 231.082 18.888C230.858 18.632 230.746 18.2 230.746 17.592C230.746 16.952 231.066 16.344 231.706 15.768C232.378 15.16 233.306 14.68 234.49 14.328C235.674 13.944 237.002 13.752 238.474 13.752C239.69 13.752 240.97 13.896 242.314 14.184C243.146 14.344 243.85 14.872 244.426 15.768C245.002 16.664 245.29 17.656 245.29 18.744C245.29 19.704 244.986 20.712 244.378 21.768C243.802 22.824 242.938 24.136 241.786 25.704H244.138C245.354 25.704 246.154 25.768 246.538 25.896C246.954 26.024 247.162 26.28 247.162 26.664C247.162 26.984 247.05 27.256 246.826 27.48C246.634 27.704 246.426 27.816 246.202 27.816H239.578C238.01 29.576 236.81 31.144 235.978 32.52C235.146 33.864 234.81 34.824 234.97 35.4C235.098 36.008 236.09 36.424 237.946 36.648C240.026 36.648 241.786 36.408 243.226 35.928C244.666 35.416 246.058 34.648 247.402 33.624ZM261.607 39C259.559 39 257.671 38.6 255.943 37.8C254.215 37 252.839 35.864 251.815 34.392C250.791 32.92 250.279 31.224 250.279 29.304C250.279 27.16 250.679 25.16 251.479 23.304C252.279 21.416 253.447 19.912 254.983 18.792C256.551 17.64 258.375 17.064 260.455 17.064C262.631 17.064 264.279 17.768 265.399 19.176C266.519 20.552 267.047 22.296 266.983 24.408C266.983 26.296 266.231 27.736 264.727 28.728C263.255 29.72 261.367 30.216 259.063 30.216C258.711 30.216 258.183 30.184 257.479 30.12C256.327 29.992 255.511 29.816 255.031 29.592C254.551 29.368 254.311 28.92 254.311 28.248C254.311 28.024 254.375 27.864 254.503 27.768C254.631 27.64 254.887 27.576 255.271 27.576C255.687 27.576 256.423 27.672 257.479 27.864C258.503 28.056 259.415 28.152 260.215 28.152C263.159 28.152 264.631 26.872 264.631 24.312C264.631 22.776 264.343 21.56 263.767 20.664C263.223 19.768 262.247 19.32 260.839 19.32C259.303 19.32 257.927 19.736 256.711 20.568C255.495 21.368 254.551 22.424 253.879 23.736C253.239 25.048 252.919 26.44 252.919 27.912C252.919 30.44 253.623 32.52 255.031 34.152C256.439 35.752 258.615 36.552 261.559 36.552C261.911 36.552 262.503 36.52 263.335 36.456C263.687 36.424 264.119 36.328 264.631 36.168C265.143 36.008 265.511 35.896 265.735 35.832C267.111 35.352 268.119 35.112 268.759 35.112C269.239 35.112 269.607 35.24 269.863 35.496C269.063 36.712 267.863 37.608 266.263 38.184C264.695 38.728 263.143 39 261.607 39ZM275.395 39.048C274.595 39.048 274.195 38.584 274.195 37.656C274.195 37.464 274.259 37.064 274.387 36.456C274.547 35.848 274.627 35.176 274.627 34.44V32.088V28.632C274.467 26.36 274.067 23.592 273.427 20.328C272.723 16.744 272.179 13.416 271.795 10.344C271.891 9.8 272.147 9.528 272.563 9.528C273.107 9.528 273.763 10.968 274.531 13.848C275.299 16.696 276.083 21.416 276.883 28.008C277.523 26.408 278.403 24.792 279.523 23.16C280.643 21.496 281.827 20.12 283.075 19.032C284.323 17.944 285.411 17.4 286.339 17.4C286.723 17.4 286.963 17.512 287.059 17.736C287.187 17.96 287.235 18.28 287.203 18.696C285.315 20.36 283.411 22.296 281.491 24.504C279.571 26.712 278.611 28.424 278.611 29.64C278.611 30.376 279.219 31.224 280.435 32.184C281.651 33.112 283.155 33.944 284.947 34.68C286.739 35.384 288.419 35.784 289.987 35.88C290.595 35.976 290.899 36.344 290.899 36.984C290.899 38.072 289.875 38.616 287.827 38.616C286.195 38.616 284.403 37.96 282.451 36.648C280.531 35.336 278.867 33.96 277.459 32.52C277.363 33.064 277.299 33.544 277.267 33.96C277.235 34.344 277.203 34.68 277.171 34.968C277.043 36.376 276.867 37.416 276.643 38.088C276.451 38.728 276.035 39.048 275.395 39.048Z" fill="white"/>
<path d="M123.193 37.176C125.817 37.176 127.849 36.808 129.289 36.072C130.729 35.336 131.449 34.264 131.449 32.856C131.449 31.608 131.017 30.536 130.153 29.64C129.289 28.712 128.217 27.928 126.937 27.288C125.657 26.648 123.913 25.896 121.705 25.032C121.513 24.968 121.049 24.792 120.313 24.504C117.305 23.288 114.985 22.072 113.353 20.856C111.753 19.64 110.953 18.072 110.953 16.152C110.953 14.008 111.801 12.392 113.497 11.304C115.193 10.216 117.369 9.672 120.025 9.672C121.977 9.672 123.769 9.928 125.401 10.44C127.065 10.92 128.377 11.592 129.337 12.456C130.329 13.32 130.825 14.296 130.825 15.384C130.441 15.576 130.073 15.672 129.721 15.672C129.337 15.672 128.937 15.592 128.521 15.432C128.137 15.24 127.561 14.936 126.793 14.52C125.545 13.848 124.377 13.32 123.289 12.936C122.201 12.52 120.921 12.312 119.449 12.312C117.593 12.312 116.089 12.632 114.937 13.272C113.785 13.912 113.209 14.808 113.209 15.96C113.209 16.856 113.593 17.672 114.361 18.408C115.161 19.144 116.153 19.8 117.337 20.376C118.553 20.92 120.169 21.576 122.185 22.344C124.745 23.336 126.857 24.264 128.521 25.128C130.185 25.992 131.593 27.096 132.745 28.44C133.929 29.752 134.521 31.32 134.521 33.144C134.521 35.288 133.497 36.952 131.449 38.136C129.401 39.288 126.857 39.864 123.817 39.864C121.417 39.864 119.049 39.512 116.713 38.808C114.377 38.104 112.377 37.064 110.713 35.688C109.049 34.28 107.993 32.6 107.545 30.648C107.545 29.784 107.785 29.048 108.265 28.44C108.745 27.8 109.337 27.48 110.041 27.48C110.041 29.56 110.617 31.336 111.769 32.808C112.953 34.248 114.537 35.336 116.521 36.072C118.537 36.808 120.761 37.176 123.193 37.176ZM118.681 7.56C118.201 7.56 117.881 7.496 117.721 7.368C117.593 7.24 117.529 6.936 117.529 6.456C117.529 5.816 118.041 5.032 119.065 4.104C120.089 3.176 121.401 2.12 123.001 0.935998L124.057 0.119997C124.633 0.407997 124.921 0.743998 124.921 1.128C124.921 1.512 124.681 1.96 124.201 2.472C123.753 2.984 122.985 3.704 121.897 4.632C120.617 5.72 119.545 6.696 118.681 7.56Z" fill="#F7E018"/>
</svg>
